<?xml version="1.0" standalone="no"?>
<!DOCTYPE svg PUBLIC "-//W3C//DTD SVG 20010904//EN"
 "http://www.w3.org/TR/2001/REC-SVG-20010904/DTD/svg10.dtd">
<svg version="1.0" xmlns="http://www.w3.org/2000/svg"
 width="44.000000pt" height="44.000000pt" viewBox="0 0 44.000000 44.000000"
 preserveAspectRatio="xMidYMid meet">

<g transform="translate(0.000000,44.000000) scale(0.100000,-0.100000)"
fill="#273AC7" stroke="none">
<path d="M177 420 c-18 -14 -27 -32 -29 -58 -2 -28 -8 -38 -23 -40 -11 -2 -24
-8 -29 -13 -14 -12 -35 -270 -24 -292 8 -15 25 -17 148 -17 123 0 140 2 148
17 10 19 -9 271 -22 291 -13 22 -36 13 -36 -14 0 -14 -4 -23 -10 -19 -5 3 -10
33 -10 65 0 51 -3 61 -26 79 -33 26 -54 26 -87 1z m91 -17 c6 -9 12 -32 12
-50 0 -33 0 -33 -50 -33 -43 0 -50 -3 -50 -19 0 -11 -4 -23 -10 -26 -6 -4 -10
18 -10 59 0 56 3 67 23 81 25 18 66 12 85 -12z m-83 -313 c-3 -5 -19 -10 -36
-10 -16 0 -29 5 -29 10 0 6 16 10 36 10 21 0 33 -4 29 -10z m-5 -30 c11 -7 5
-10 -22 -10 -21 0 -38 5 -38 10 0 13 40 13 60 0z"/>
</g>
</svg>
